# Blender v2.78 (sub 0) OBJ File: ''
# www.blender.org
mtllib monolith_blender.mtl
o DDD
v -6.563950 7.603027 -15.587829
v -12.590351 0.913947 -7.329362
v -7.288053 25.884796 -10.752913
v -4.926462 24.895275 -14.341948
v -17.189686 0.624696 9.105101
v -15.050695 20.244202 8.908493
v -6.563950 7.603026 -8.991735
v -0.835664 24.895275 -8.819805
v 6.361413 7.603027 -16.706114
v 9.164116 0.261146 -13.275279
v 9.187003 2.525442 -8.286909
v 3.907967 8.861961 -8.991735
v 5.981018 23.980188 -13.609550
v 8.785933 25.275654 -11.460672
v 9.033899 25.462084 -7.513651
v 4.323039 24.079239 -8.639596
v -9.489637 71.255417 5.545286
v -8.654561 71.719162 5.591917
v 3.797456 29.067928 -10.910708
v -10.051646 70.363724 7.110297
v -10.537285 69.076859 9.884835
v -8.701374 70.933060 7.682896
v 3.376351 26.482748 -7.582831
v -8.184548 71.170822 7.847398
v -8.399695 71.840034 5.663044
v -8.005434 71.557228 7.067070
v -8.120279 71.104721 8.131350
v -7.568497 71.327965 8.391248
v 15.827470 7.603025 -6.668458
v 14.388663 0.022648 -9.441056
v 11.524816 25.884796 -7.933928
v 14.137849 24.895273 -5.694495
v -8.038023 70.772079 9.177964
v -6.817819 71.503990 9.096560
v -8.769576 70.164749 9.690948
v -8.179137 70.439835 9.869351
v -8.068236 70.516396 9.834301
v 17.212086 7.603024 6.231093
v 13.839964 -0.762738 9.096269
v 9.883110 -0.446999 4.904810
v 9.448749 8.861959 3.937267
v 14.654500 23.980186 5.273405
v 12.563928 25.275650 8.122042
v 3.328690 25.683414 8.483777
v 4.527311 23.397158 3.140276
v 10.694303 45.993855 5.355099
v -7.350554 71.617828 7.938403
v -6.381428 71.686417 9.285954
v 8.601231 43.486141 4.048428
v -7.072109 71.102257 9.799910
v 7.229326 7.603022 15.387196
v 9.669880 1.638059 10.962154
v 9.025104 25.884792 10.545671
v 6.785670 24.895271 16.491953
v 9.433396 25.202713 6.682792
v 7.093291 7.603023 7.496797
v 2.534219 24.895271 8.746045
v -5.670224 7.603022 16.771812
v -8.538790 2.262779 13.403337
v -3.376398 8.861958 9.008475
v -10.051554 67.684128 14.490978
v -10.414083 67.618820 14.096089
v -4.191725 32.754238 13.215060
v -9.527662 68.145569 14.050583
v -9.705429 69.367340 10.403588
v -2.957250 30.246527 7.622087
v -8.079167 69.098701 13.721790
v -8.106633 69.254517 13.249075
v -7.418929 70.968811 9.617605
vt 0.5000 0.9250
vt 0.5000 1.0000
vt 0.0000 0.5000
vt 0.0750 0.5000
vt 0.2492 0.0000
vt 0.2500 1.0000
vt 0.0000 1.0000
vt 0.0000 0.0000
vt 0.5000 1.0000
vt 0.5000 0.9250
vt 0.9250 0.5000
vt 1.0000 0.5000
vt 0.5260 0.9740
vt 0.5000 1.0000
vt 1.0000 0.5000
vt 1.0000 0.5000
vt 0.9250 0.5000
vt 1.0000 0.5000
vt 0.5000 0.0020
vt 0.5000 1.0000
vt 0.2500 0.0000
vt 0.0750 0.5000
vt 0.0750 0.5000
vt 0.0053 0.5053
vt 0.0000 0.5000
vt 0.5000 1.0000
vt 0.7258 0.2782
vt 0.7495 0.2495
vt 0.6253 0.0015
vt 0.6367 1.0000
vt 0.5000 0.0000
vt 0.2734 0.2266
vt 0.3182 0.2568
vt 0.0000 0.5000
vt 0.2851 0.2149
vt 0.2561 0.2439
vt 0.0000 0.5000
vt 0.4600 0.0400
vt 0.5000 0.0057
vt 0.5000 0.0750
vt 0.0762 0.4771
vt 0.7772 0.4396
vt 1.0000 1.0000
vt 0.7855 1.0000
vt 0.7702 0.0215
vt 0.9996 0.0466
vt 0.5116 0.0196
vt 0.5000 0.0750
vt 0.5000 0.0093
vt 0.5521 0.0560
vt 0.9673 0.5000
vt 0.5000 0.0000
vt 0.5000 0.0000
vt 0.5175 0.0175
vt 0.7078 0.2729
vt 0.6267 0.0000
vt 0.7414 0.0000
vt 0.7401 0.1957
vt 0.4900 0.0162
vt 0.3168 0.2326
vt 0.4850 0.0193
vt 0.3133 0.1867
vt 0.4355 0.8896
vt 0.5000 1.0000
vt 0.0000 0.5000
vt 0.0750 0.5000
vt 0.2500 0.0000
vt 0.2500 1.0000
vt 0.0000 1.0000
vt 0.0000 0.0000
vt 0.3281 0.3016
vt 0.0000 0.0000
vt 0.2018 0.0725
vt 0.3502 0.1645
vt 0.3675 0.1373
vt 0.5064 0.2352
vt 1.0000 1.0000
vt 0.5247 0.5518
vt 0.3660 0.4384
vt 0.3362 0.4069
vt 0.5070 0.9930
vt 0.5000 1.0000
vt 1.0000 0.5000
vt 1.0000 0.5000
vt 0.9221 0.5070
vt 1.0000 0.5000
vt 0.5000 0.9250
vt 0.4999 0.0008
vt 0.5000 1.0000
vt 0.0005 0.5005
vt 0.0750 0.5000
vt 0.5000 0.9625
vt 0.0053 0.5053
vt 0.0000 0.5000
vt 0.7267 0.2778
vt 0.7495 0.2495
vt 0.9250 0.5000
vt 0.6342 1.0000
vt 0.6367 1.0000
vt 0.5000 0.0000
vt 0.3149 0.2547
vt 0.3182 0.2568
vt 0.0000 0.5000
vt 0.2861 0.2139
vt 0.2561 0.2439
vt 0.0000 0.5000
vt 0.5000 0.0750
vt 0.4417 0.0583
vt 0.5000 0.0123
vt 0.0416 0.4977
vt 0.7500 1.0000
vt 0.7500 0.1186
vt 0.7791 0.1165
vt 1.0000 1.0000
vt 0.9250 0.5000
vt 0.5000 0.0750
vt 0.5000 0.0120
vt 0.5400 0.0442
vt 0.5450 0.0480
vt 0.9319 0.4953
vt 0.5000 0.0000
vt 0.5000 0.0000
vt 0.7248 0.2687
vt 0.7500 0.0000
vt 0.7500 0.8770
vt 0.7350 1.0000
vt 0.4799 0.0244
vt 0.3201 0.2382
vt 0.4781 0.0257
vt 0.4928 0.9216
vt 0.5000 1.0000
vt 0.0000 0.5000
vt 0.0750 0.5000
vt 0.2500 0.0000
vt 0.2500 1.0000
vt 0.0000 1.0000
vt 0.0000 0.0000
vt 0.5000 0.9788
vt 0.5000 0.9250
vt 0.9250 0.5000
vt 1.0000 0.5000
vt 0.5193 0.9807
vt 0.5000 1.0000
vt 1.0000 0.5000
vt 1.0000 0.5000
vt 0.9250 0.5000
vt 1.0000 0.5000
vt 0.5000 0.9250
vt 0.4998 0.0021
vt 0.0081 0.5081
vt 0.0750 0.5000
vt 0.0063 0.5063
vt 0.0000 0.5000
vt 0.5000 1.0000
vt 0.5328 0.0383
vt 0.5558 0.0558
vt 0.8359 0.3359
vt 0.5554 0.0554
vt 0.5512 1.0000
vt 0.5000 0.0000
vt 0.7236 0.7837
vt 0.7183 0.9230
vt 0.5000 0.0750
vt 0.0000 0.5000
vt 0.1040 0.3963
vt 0.4508 0.0508
vt 0.5000 0.0126
vt 0.5000 0.0000
vt 0.5000 0.0000
vt 0.0000 0.5000
vt 0.5000 0.0750
vt 0.4355 0.0645
vt 0.5000 0.0120
vt 0.0383 0.4925
vt 0.7822 0.1102
vt 1.0000 1.0000
vt 0.7812 1.0000
vt 0.9990 0.0000
vt 0.7821 0.0000
vt 0.5000 0.0111
vt 0.5278 0.0344
vt 0.5622 0.0622
vt 0.9993 0.4997
vt 0.9351 0.4351
vt 0.2599 0.6397
vt 0.2777 0.6391
vt 0.2796 0.6356
vt 0.2713 0.6310
vt 0.2778 0.6342
vt 0.2740 0.6564
vt 0.2717 0.6512
vt 0.2710 0.6533
vt 0.2450 0.6571
vt 0.2683 0.6483
vt 0.2772 0.6644
vt 0.2799 0.6672
vt 0.2780 0.6547
vt 0.2755 0.6539
vt 0.2639 0.6651
vt 0.2670 0.6607
vt 0.2721 0.6683
vt 0.2745 0.6575
vt 0.2482 0.6633
vt 0.2262 0.6859
vt 0.2273 0.6899
vt 0.2485 0.6881
vt 0.2335 0.6887
vt 0.2467 0.6914
vt 0.2589 0.6617
vt 0.2424 0.6567
vt 0.2628 0.6649
vt 0.2701 0.6658
vt 0.7217 1.0000
vn -0.8353 0.1094 -0.5388
vn -0.9441 0.1331 -0.3015
vn 0.8348 -0.1776 0.5212
vn 0.9310 -0.1854 -0.3143
vn -0.1695 -0.6075 -0.7760
vn 0.0781 -0.9911 0.1081
vn 0.2197 0.7656 0.6047
vn -0.0581 0.9936 -0.0974
vn 0.7502 0.0914 -0.6549
vn 0.9993 0.0129 -0.0338
vn -0.1934 -0.0276 0.9807
vn -0.9496 0.0350 -0.3115
vn -0.1100 0.3309 -0.9372
vn -0.2571 0.8749 -0.4104
vn -0.9872 0.0938 -0.1293
vn -0.9361 0.0795 -0.3427
vn -0.1371 -0.3549 0.9248
vn 0.7893 -0.0842 0.6082
vn 0.4918 -0.7595 -0.4258
vn 0.2008 0.4032 -0.8928
vn 0.3332 0.5495 -0.7662
vn 0.9209 0.3757 -0.1038
vn -0.2320 -0.3757 0.8972
vn -0.1312 -0.3652 0.9216
vn -0.9240 -0.2348 -0.3019
vn 0.6939 0.1141 -0.7110
vn -0.1916 0.0340 -0.9809
vn -0.4759 0.8267 0.3002
vn -0.2614 -0.0538 0.9637
vn 0.9568 -0.2889 -0.0327
vn -0.2580 -0.9596 -0.1124
vn -0.9982 -0.0421 0.0432
vn -0.1911 0.9547 -0.2283
vn 0.6593 0.0936 0.7461
vn -0.2822 -0.0900 0.9551
vn -0.9023 -0.2297 -0.3648
vn 0.2403 0.0030 -0.9707
vn 0.5806 0.4755 -0.6610
vn 0.6764 0.4253 -0.6013
vn 0.0816 0.3423 -0.9360
vn -0.5860 -0.4459 0.6767
vn -0.8889 -0.3995 0.2241
vn -0.2261 -0.5041 0.8335
vn 0.8281 0.1470 0.5409
vn 0.0390 -0.0200 0.9990
vn -0.1686 0.0819 -0.9823
vn -0.9636 -0.2411 -0.1157
vn 0.2657 0.0219 -0.9638
vn 0.9144 0.0173 0.4044
vn 0.9982 0.0203 0.0569
vn -0.4236 0.0144 -0.9057
vn -0.9511 -0.1557 0.2669
vn 0.0893 -0.5676 0.8185
vn 0.0129 -0.9442 0.3290
vn -0.1318 0.2367 -0.9626
vn 0.0646 0.9940 0.0888
vn -0.7380 -0.0283 0.6742
vn 0.6148 0.0745 0.7851
vn -0.4530 0.0583 0.8896
vn -0.9794 -0.0260 -0.2003
vn 0.0320 -0.0653 -0.9974
vn -0.1253 0.0243 -0.9918
vn 0.9665 -0.0122 0.2565
vn 0.2034 0.0081 0.9791
vn 0.4870 0.8132 0.3187
vn 0.8967 0.3099 0.3161
vn 0.9302 0.3651 0.0374
vn 0.2796 0.0898 -0.9559
vn -0.2847 -0.0434 -0.9576
vn -0.6451 -0.7111 0.2796
vn -0.4759 0.8267 0.3001
vn -0.5136 0.0298 0.8575
usemtl default
s off
f 1/1/1 2/2/1 3/3/1 4/4/1
f 2/5/2 5/6/2 6/7/2 3/8/2
f 5/9/3 7/10/3 8/11/3 6/12/3
f 7/13/4 1/14/4 4/15/4 8/16/4
f 9/17/5 10/18/5 2/2/5 1/1/5
f 10/19/6 11/20/6 5/6/6 2/21/6
f 11/22/7 12/23/7 7/10/7 5/9/7
f 12/24/8 9/25/8 1/14/8 7/26/8
f 13/27/9 14/28/9 10/18/9 9/17/9
f 14/29/10 15/30/10 11/20/10 10/31/10
f 15/32/11 16/33/11 12/23/11 11/34/11
f 16/35/12 13/36/12 9/25/12 12/37/12
f 17/38/13 18/39/13 19/40/13 3/3/13
f 19/40/14 4/41/14 3/3/14
f 20/42/15 6/43/15 21/44/15
f 20/42/16 17/45/16 3/46/16 6/43/16
f 22/47/17 8/11/17 23/48/17 24/49/17
f 21/50/18 6/51/18 8/11/18 22/47/18
f 8/16/19 4/15/19 19/52/19 23/53/19
f 19/40/20 18/39/20 25/54/20 14/28/20
f 14/28/21 13/55/21 19/40/21
f 15/30/22 14/56/22 25/57/22 26/58/22
f 16/33/23 27/59/23 24/49/23 23/48/23
f 16/33/24 15/60/24 28/61/24 27/59/24
f 16/62/25 23/53/25 19/52/25 13/36/25
f 29/63/26 30/64/26 31/65/26 32/66/26
f 30/67/27 11/68/27 15/69/27 31/70/27
f 33/71/28 34/72/28 28/73/28 27/74/28 24/75/28 22/76/28 21/77/28 35/78/28 36/79/28 37/80/28
f 11/81/29 29/82/29 32/83/29 15/84/29
f 38/85/30 39/86/30 30/64/30 29/87/30
f 39/88/31 40/89/31 11/68/31 30/67/31
f 40/90/32 41/91/32 11/92/32
f 41/93/33 38/94/33 29/82/33 11/20/33
f 42/95/34 43/96/34 39/86/34 38/97/34
f 43/98/35 44/99/35 40/89/35 39/100/35
f 44/101/36 45/102/36 41/91/36 40/103/36
f 45/104/37 42/105/37 38/94/37 41/106/37
f 46/107/38 31/65/38 47/108/38 48/109/38
f 46/107/39 32/110/39 31/65/39
f 15/111/40 26/112/40 47/113/40 31/114/40
f 15/115/41 49/116/41 34/117/41 28/118/41
f 28/118/42 26/119/42 15/120/42
f 15/84/43 32/83/43 46/121/43 49/122/43
f 43/96/44 42/123/44 46/107/44
f 44/99/45 43/124/45 50/125/45 37/126/45
f 45/102/46 33/127/46 34/117/46 49/116/46
f 44/128/47 37/129/47 33/127/47 45/102/47
f 45/104/48 49/122/48 46/121/48 42/105/48
f 51/130/49 52/131/49 53/132/49 54/133/49
f 52/134/50 40/135/50 55/136/50 53/137/50
f 40/138/51 56/139/51 57/140/51 55/141/51
f 56/142/52 51/143/52 54/144/52 57/145/52
f 58/146/53 59/147/53 52/131/53 51/148/53
f 59/149/54 5/9/54 40/135/54 52/134/54
f 5/150/55 60/151/55 56/139/55 40/89/55
f 60/152/56 58/153/56 51/143/56 56/154/56
f 59/147/57 58/146/57 61/155/57 62/156/57
f 58/146/58 63/157/58 64/158/58 61/155/58
f 6/159/59 5/9/59 59/160/59
f 65/161/60 59/160/60 62/162/60
f 66/163/61 60/151/61 5/164/61
f 5/164/62 6/165/62 21/166/62 35/167/62 66/163/62
f 66/168/63 63/169/63 58/153/63 60/170/63
f 63/171/64 53/132/64 67/172/64 64/173/64
f 63/171/65 54/174/65 53/132/65
f 68/175/66 55/176/66 69/177/66
f 53/178/67 55/176/67 68/175/67 67/179/67
f 66/163/68 35/180/68 36/181/68 57/140/68
f 69/182/69 55/183/69 57/140/69 36/181/69
f 57/184/70 54/144/70 63/169/70 66/168/70
f 20/185/28 26/186/28 25/187/28
f 17/188/71 20/185/71 25/187/71 18/189/71
f 28/190/28 26/186/28 24/191/28 27/192/28
f 21/193/28 22/194/28 26/186/28 20/185/28
f 22/194/28 24/191/28 26/186/28
f 34/195/28 48/196/28 47/197/28 26/198/28
f 37/199/71 48/196/71 34/195/71 33/200/71
f 48/196/28 37/199/28 50/201/28
f 34/195/71 26/198/71 28/202/71
f 65/203/71 62/204/71 61/205/71
f 68/206/28 64/207/28 67/208/28
f 65/203/71 35/209/71 21/210/71
f 64/207/28 36/211/28 35/209/28
f 61/205/28 64/207/28 35/209/28 65/203/28
f 64/207/28 68/206/28 69/212/28 36/211/28
f 59/160/72 65/161/72 21/213/72 6/159/72
