# WaveFront *.obj file (generated by CINEMA 4D)

v -4.92646169662476 24.89527320861816 -14.34195137023926
v -7.28805255889893 25.88479423522949 -10.75291728973389
v -15.05069541931152 20.24420356750488 8.90849018096924
v -0.83566373586655 24.89527320861816 -8.81980895996094
v -6.56394958496094 7.60302448272705 -15.58782958984375
v -12.59035110473633 0.91394585371017 -7.32936239242554
v -17.1896858215332 0.6246971487999 9.10510063171387
v -6.56394958496094 7.60302448272705 -8.99173641204834
v 6.36141300201416 7.60302448272705 -16.70611572265625
v 9.16411590576172 0.26114371418953 -13.27527904510498
v 9.18700313568115 2.52544045448303 -8.28690910339355
v 3.90796661376953 8.86195945739746 -8.99173641204834
v 3.79745626449585 29.06792640686035 -10.91071319580078
v 3.37635135650635 26.48274612426758 -7.58283519744873
v 8.78593349456787 25.2756519317627 -11.4606761932373
v 5.98101758956909 23.98018646240234 -13.60955333709717
v 9.03389930725098 25.46208190917969 -7.51365566253662
v 4.32303905487061 24.07923698425293 -8.63959980010986
v 14.13784885406494 24.89527320861816 -5.69449949264526
v 11.52481555938721 25.88479423522949 -7.93393278121948
v -9.70542907714844 69.36734008789062 10.40357685089111
v -8.10663318634033 69.2545166015625 13.24906349182129
v 15.82746982574463 7.60302448272705 -6.66845893859863
v 14.38866329193115 0.02264676429331 -9.44105625152588
v -8.76957607269287 70.16474914550781 9.69093704223633
v -8.07916736602783 69.09870147705078 13.72177886962891
v 17.21208572387695 7.60302448272705 6.23109149932861
v 13.83996391296387 -0.7627364397049 9.09626865386963
v 9.88311004638672 -0.44699826836586 4.90481042861938
v 9.44874858856201 8.86195945739746 3.93726563453674
v 10.69430255889893 45.99385452270508 5.35509157180786
v 8.60123062133789 43.48614120483398 4.04842042922974
v 12.56392765045166 25.2756519317627 8.12203788757324
v 14.65450000762939 23.98018646240234 5.27340078353882
v 3.32868957519531 25.68341636657715 8.48377323150635
v 4.52731084823608 23.39715766906738 3.14027261734009
v 6.78566980361938 24.89527320861816 16.4919490814209
v 9.02510356903076 25.88479423522949 10.54566669464111
v 9.4333963394165 25.20271492004395 6.68278741836548
v 2.53421926498413 24.89527320861816 8.7460412979126
v 7.22932624816895 7.60302448272705 15.38719463348389
v 9.66987991333008 1.6380603313446 10.96215438842773
v 7.09329080581665 7.60302448272705 7.49679517745972
v -5.6702241897583 7.60302448272705 16.77181053161621
v -8.53878974914551 2.26278114318848 13.40333652496338
v -2.95725011825562 30.24652862548828 7.62208223342896
v -3.37639808654785 8.86195945739746 9.00847339630127
v -4.19172525405884 32.75424194335938 13.21505451202393
v -7.41892862319946 70.96881103515625 9.61759376525879
v -8.65456104278564 71.71916198730469 5.59190511703491
v -10.53728485107422 69.07685852050781 9.8848237991333
v -8.17913722991943 70.43983459472656 9.86933994293213
v -8.18454837799072 71.17082214355469 7.84738636016846
v -8.70137405395508 70.93305969238281 7.68288469314575
v -8.39969539642334 71.84003448486328 5.66303253173828
v -7.56849718093872 71.32796478271484 8.39123630523682
v -8.00543403625488 71.55722808837891 7.06705808639526
v -8.12027931213379 71.10472106933594 8.13133811950684
v -9.48963737487793 71.25541687011719 5.54527473449707
v -10.05164623260498 70.36372375488281 7.11028575897217
v -6.38142776489258 71.68641662597656 9.28594303131104
v -7.35055351257324 71.61782836914062 7.93839120864868
v -8.03802299499512 70.77207946777344 9.17795276641846
v -7.07210874557495 71.10225677490234 9.79989814758301
v -8.06823635101318 70.51639556884766 9.83428955078125
v -6.8178186416626 71.50399017333984 9.09654808044434
v -10.05155372619629 67.68412780761719 14.490966796875
v -10.41408252716064 67.61882019042969 14.09607791900635
v -9.52766227722168 68.14556884765625 14.05057144165039
# 69 vertices

vn -0.83242416381836 0.10703479498625 -0.54370361566544
vn -0.91372126340866 0.10786609351635 -0.39176321029663
vn -0.89621806144714 0.12075351923704 -0.42686265707016
vn -0.96231013536453 0.10306570678949 -0.25166773796082
vn -0.94396102428436 0.13230960071087 -0.30237674713135
vn 0.81567466259003 -0.1322406232357 0.56319379806519
vn 0.83402854204178 -0.17904007434845 0.52186304330826
vn 0.93063807487488 -0.18462519347668 -0.31595298647881
vn -0.14693294465542 -0.56950569152832 -0.80874842405319
vn 0.08138720691204 -0.97387325763702 0.21200719475746
vn 0.19382038712502 0.78785145282745 0.58457148075104
vn -0.05891203507781 0.99337124824524 -0.0987064987421
vn 0.70166176557541 0.11256396025419 -0.70356249809265
vn 0.99927407503128 0.01332308165729 -0.03568995371461
vn 0.97606420516968 0.20155066251755 -0.08170659095049
vn -0.188651278615 -0.02650862187147 0.98168629407883
vn -0.24838533997536 -0.27104485034943 0.92996740341187
vn -0.19013991951942 -0.20679250359535 0.9597310423851
vn -0.94926381111145 0.03469468280673 -0.31256118416786
vn -0.94532382488251 -0.10042017698288 -0.31028807163239
vn -0.11960350722075 0.33031156659126 -0.93626344203949
vn 0.1231329664588 0.43361106514931 -0.89264762401581
vn 0.0136631410569 0.36308401823044 -0.93165624141693
vn -0.25707218050957 0.87493062019348 -0.41037824749947
vn 0 0 0
vn -0.98716074228287 0.09382393956184 -0.12927003204823
vn -0.97016263008118 0.08822654932737 -0.22583301365376
vn -0.94380760192871 0.08177824318409 -0.32021790742874
vn -0.24753512442112 -0.37536007165909 0.89321398735046
vn -0.1347228884697 -0.35464292764664 0.92524492740631
vn 0.79386615753174 -0.0848811045289 0.60213929414749
vn 0.473000228405 -0.7869536280632 -0.39620035886765
vn 0.24241864681244 0.47406026721001 -0.84646326303482
vn 0.14667217433453 0.38901042938232 -0.90948235988617
vn 0.33322650194168 0.54945242404938 -0.76619976758957
vn 0.91568011045456 0.38210207223892 -0.12461138516665
vn -0.27221620082855 -0.38709649443626 0.88093966245651
vn -0.18535651266575 -0.3802550137043 0.90611761808395
vn -0.92410641908646 -0.23369967937469 -0.30234387516975
vn 0.69793456792831 0.27300053834915 -0.66208618879318
vn 0.67985886335373 0.34341448545456 -0.64796477556229
vn 0.70037114620209 0.11321768164635 -0.70474255084991
vn -0.18604028224945 0.03345727548003 -0.9819723367691
vn -0.27812916040421 -0.06043151766062 0.95864081382751
vn 0.95328921079636 -0.29955923557281 -0.03878106549382
vn -0.25264173746109 -0.96119332313538 -0.11081314831972
vn -0.99818003177643 -0.04208671674132 0.04318920150399
vn -0.20145674049854 0.95394343137741 -0.22227722406387
vn 0.70893603563309 0.11195411533117 0.69633036851883
vn 0.77236694097519 0.13010840117931 0.62170827388763
vn -0.37325781583786 -0.12707109749317 0.91898393630981
vn -0.70125234127045 -0.20797590911388 -0.68190264701843
vn 0.24358214437962 0.00184285314754 -0.96987849473953
vn 0.28840681910515 0.02295858599246 -0.95723271369934
vn 0.63324105739594 0.47677928209305 -0.60966163873672
vn 0.65519845485687 0.45130577683449 -0.6058366894722
vn 0.28225013613701 0.40615543723106 -0.86912173032761
vn -0.57421684265137 -0.44107401371002 0.68973088264465
vn -0.88891178369522 -0.39949262142181 0.22414617240429
vn -0.17061483860016 -0.49676781892776 0.85094785690308
vn 0.8281347155571 0.14697183668613 0.54091787338257
vn 0.04147828742862 -0.01889193989336 0.99896079301834
vn -0.15108223259449 0.09288015216589 -0.98414808511734
vn -0.96280378103256 -0.23963414132595 -0.12483745068312
vn 0.33247727155685 0.04401428252459 -0.94208365678787
vn 0.90473425388336 0.01094972435385 0.42583566904068
vn 0.97333443164825 0.13499073684216 0.18546582758427
vn 0.968226313591 0.01507046353072 0.24962106347084
vn 0.96084403991699 0.23532925546169 0.14628361165524
vn 0.99773383140564 0.01866223290563 0.06464479863644
vn -0.37195163965225 -0.01222982443869 -0.92817157506943
vn -0.4550379216671 0.01932740584016 -0.89026230573654
vn -0.9530194401741 -0.15997244417667 0.25722119212151
vn 0.0890441313386 -0.56710475683212 0.81881827116013
vn 0.0127966189757 -0.94389921426773 0.32998561859131
vn -0.12314844876528 0.24816431105137 -0.96085840463638
vn -0.0463180243969 0.09288587421179 -0.99459886550903
vn -0.06690934300423 0.06226270645857 -0.99581450223923
vn 0.07327104359865 0.99220198392868 0.10082960128784
vn -0.73624849319458 -0.02805122919381 0.67612957954407
vn 0.60986614227295 0.07348725944757 0.7890899181366
vn -0.48910564184189 0.04476864635944 0.87107485532761
vn -0.45303443074226 0.05830615013838 0.88958430290222
vn -0.97939723730087 -0.02597961202264 -0.20026510953903
vn -0.06874959170818 -0.01045507378876 -0.99757915735245
vn 0.96834272146225 -0.01086352951825 0.24938794970512
vn 0.20750541985035 0.00997048895806 0.97818303108215
vn 0.48701345920563 0.81315904855728 0.31873232126236
vn 0.89667856693268 0.30991086363792 0.31610572338104
vn 0.9222337603569 0.33979934453964 0.18444873392582
vn 0.9303771853447 0.36327239871025 0.0493093393743
vn 0.2682296037674 0.08700259774923 -0.95941829681396
vn -0.2853926718235 -0.04367286711931 -0.95741510391235
vn -0.65174323320389 -0.69908320903778 0.29413175582886
vn -0.47586035728455 0.82671934366226 0.30015337467194
vn -0.47585651278496 0.82672399282455 0.30014672875404
vn -0.47586151957512 0.82671916484833 0.30015197396278
vn -0.47585695981979 0.8267195224762 0.30015823245049
vn -0.47585862874985 0.82672047615051 0.30015307664871
vn -0.47585925459862 0.826720058918 0.30015307664871
vn -0.47586151957512 0.82671862840652 0.30015355348587
vn -0.47586244344711 0.82671874761581 0.30015161633492
vn -0.47586268186569 0.82671940326691 0.30014961957932
vn -0.47582510113716 0.82675105333328 0.30012190341949
vn -0.475850045681 0.82672899961472 0.30014312267303
vn -0.47585499286652 0.82672548294067 0.3001449406147
vn -0.47586196660995 0.82671874761581 0.3001523911953
vn -0.47586259245872 0.82671803236008 0.3001534640789
vn -0.47586178779602 0.82671767473221 0.30015578866005
vn -0.47586369514465 0.82671827077866 0.30015110969543
vn -0.47586965560913 0.82671546936035 0.30014935135841
vn -0.47586336731911 0.82671892642975 0.30014970898628
vn -0.4758634865284 0.82671892642975 0.30014950037003
vn -0.47586089372635 0.82671976089478 0.30015134811401
vn -0.47586262226105 0.82671916484833 0.30015024542809
vn -0.47586101293564 0.82671964168549 0.30015143752098
vn -0.47586166858673 0.82671910524368 0.30015191435814
vn -0.4758617579937 0.82671940326691 0.30015099048614
vn -0.52428328990936 0.03114935383201 0.85097396373749
vn -0.13031747937202 0.03230576217175 -0.99094587564468
vn -0.11877260357141 0.01701710000634 -0.99277561903
# 121 normals

vt 0.07500000298023 0.5 0
vt 0 0.5 0
vt 0.5 1 0
vt 0.5 0.92500001192093 0
vt 0 0 0
vt 0 1 0
vt 0.25 1 0
vt 0.24919758737087 0 0
vt 1 0.5 0
vt 0.92500001192093 0.5 0
vt 0.52603256702423 0.97396743297577 0
vt 0.25 0 0
vt 0.5 0.00202763080597 0
vt 0.00530414143577 0.50530415773392 0
vt 0.74947589635849 0.24947595596313 0
vt 0.7257913351059 0.27823722362518 0
vt 0.5 0 0
vt 0.63669246435165 1 0
vt 0.625279545784 0.00152850151062 0
vt 0.31816419959068 0.25683581829071 0
vt 0.27338486909866 0.22661519050598 0
vt 0.25606960058212 0.24393045902252 0
vt 0.28512907028198 0.21487104892731 0
vt 0.5 0.07500004768372 0
vt 0.5 0.00574457645416 0
vt 0.46000301837921 0.03999698162079 0
vt 0.0762375369668 0.47709989547729 0
vt 0.7854922413826 1 0
vt 1 1 0
vt 0.77720934152603 0.43962430953979 0
vt 0.99959433078766 0.04655027389526 0
vt 0.77024227380753 0.02152991294861 0
vt 0.5 0.00931620597839 0
vt 0.51162648200989 0.01958835124969 0
vt 0.96729892492294 0.5 0
vt 0.55212771892548 0.05604898929596 0
vt 0.51753628253937 0.01753628253937 0
vt 0.70778203010559 0.27287435531616 0
vt 0.74010401964188 0.19572007656097 0
vt 0.7413826584816 0 0
vt 0.62665170431137 0 0
vt 0.49000862240791 0.01620185375214 0
vt 0.48498699069023 0.01928913593292 0
vt 0.31677129864693 0.23264312744141 0
vt 0.31334838271141 0.18665170669556 0
vt 0.43553361296654 0.88957345485687 0
vt 0.50702834129334 0.99297165870666 0
vt 0.92209059000015 0.50700968503952 0
vt 0.49993795156479 0.00076985359192 0
vt 0.5 0.96249997615814 0
vt 0.00054380705114 0.50047796964645 0
vt 0.7267033457756 0.27784740924835 0
vt 0.6342368721962 1 0
vt 0.31493499875069 0.25465655326843 0
vt 0.28607550263405 0.21392452716827 0
vt 0.5 0.01231932640076 0
vt 0.44173863530159 0.05826139450073 0
vt 0.04163585603237 0.49765288829803 0
vt 0.77913069725037 0.11652278900146 0
vt 0.75 0.11862206459045 0
vt 0.75 1 0
vt 0.53996002674103 0.04420876502991 0
vt 0.5 0.01197624206543 0
vt 0.93188798427582 0.49533379077911 0
vt 0.54496759176254 0.04799175262451 0
vt 0.72482311725616 0.26870489120483 0
vt 0.73499983549118 1 0
vt 0.75 0.87697434425354 0
vt 0.75 0 0
vt 0.4798609316349 0.02436351776123 0
vt 0.47810018062592 0.02570426464081 0
vt 0.32013732194901 0.23824346065521 0
vt 0.49283277988434 0.92160713672638 0
vt 0.5 0.97883874177933 0
vt 0.51930159330368 0.98069840669632 0
vt 0.49975976347923 0.00207531452179 0
vt 0.00809589028358 0.50809592008591 0
vt 0.00629413779825 0.50629413127899 0
vt 0.55575841665268 0.05575847625732 0
vt 0.53283870220184 0.03829884529114 0
vt 0.55538523197174 0.05538523197174 0
vt 0.83594810962677 0.33594810962677 0
vt 0.55115938186646 1 0
vt 0.71832436323166 0.92303562164307 0
vt 0.7235956788063 0.78366219997406 0
vt 0.5 0.01201844215393 0
vt 0.43547520041466 0.06452476978302 0
vt 0.03827759250998 0.49250614643097 0
vt 0.78121107816696 1 0
vt 0.78220951557159 0.11024177074432 0
vt 0.78209400177002 0 0
vt 0.99898719787598 0 0
vt 0.52783370018005 0.03436529636383 0
vt 0.5 0.01105952262878 0
vt 0.99932038784027 0.49971747398376 0
vt 0.56220281124115 0.06223630905151 0
vt 0.93513381481171 0.43513381481171 0
vt 0.2795874774456 0.63556981086731 0
vt 0.27768060564995 0.63905298709869 0
vt 0.25986805558205 0.63969951868057 0
vt 0.27784237265587 0.63420605659485 0
vt 0.27130305767059 0.63100469112396 0
vt 0.27096843719482 0.6533100605011 0
vt 0.27170050144196 0.65115827322006 0
vt 0.27403327822685 0.65644335746765 0
vt 0.26825100183487 0.64825510978699 0
vt 0.24503660202026 0.65708953142166 0
vt 0.27549031376839 0.65389442443848 0
vt 0.27803555130959 0.65465754270554 0
vt 0.2799254655838 0.66716325283051 0
vt 0.27723529934883 0.66436874866486 0
vt 0.26702120900154 0.66070717573166 0
vt 0.26388522982597 0.66506344079971 0
vt 0.27208232879639 0.66827046871185 0
vt 0.27452659606934 0.65752130746841 0
vt 0.22734802961349 0.68986040353775 0
vt 0.22615990042686 0.68592447042465 0
vt 0.24815349280834 0.66327726840973 0
vt 0.24666787683964 0.69144582748413 0
vt 0.23351988196373 0.68867701292038 0
vt 0.24852892756462 0.6881383061409 0
vt 0.24240429699421 0.65666717290878 0
vt 0.25885227322578 0.66166663169861 0
vt 0.26283505558968 0.66491860151291 0
vt 0.27008441090584 0.66583353281021 0
vt 0.7216933965683 1 0
vt 0.32805904746056 0.30155324935913 0
vt 0.33618211746216 0.4068968296051 0
vt 0.36599838733673 0.43844032287598 0
vt 0.52474117279053 0.55177855491638 0
vt 0.50640475749969 0.23522889614105 0
vt 0.3674530684948 0.1372686624527 0
vt 0.35017415881157 0.16450226306915 0
vt 0.20182418823242 0.07252180576324 0
vt 0.5 0.01261723041534 0
vt 0.45078471302986 0.0508109331131 0
vt 0.10402597486973 0.39634227752686 0
# 137 texture coordinates

o DDD
usemtl default
f 5/4/1 6/3/3 2/2/2 1/1/1
f 6/8/3 7/7/5 3/6/4 2/5/2
f 7/3/7 8/4/7 4/10/6 3/9/6
f 8/11/8 5/3/8 1/9/8 4/9/8
f 9/10/9 10/9/9 6/3/9 5/4/9
f 10/13/10 11/3/10 7/7/10 6/12/10
f 11/1/11 12/1/11 8/4/11 7/3/11
f 12/14/12 9/2/12 5/3/12 8/3/12
f 16/16/13 15/15/13 10/9/13 9/10/13
f 15/19/15 17/18/15 11/3/14 10/17/14
f 17/21/18 18/20/17 12/1/16 11/2/16
f 18/23/20 16/22/20 9/2/19 12/2/19
f 59/26/21 50/25/23 13/24/22 2/2/21
f 13/24/24 1/27/24 2/2/24
f 60/30/27 3/29/4 51/28/26
f 60/30/27 59/32/28 2/31/2 3/29/4
f 54/34/30 4/10/30 14/24/29 53/33/29
f 51/36/31 3/35/6 4/10/6 54/34/31
f 4/9/32 1/9/32 13/17/32 14/17/32
f 13/24/22 50/25/23 55/37/34 15/15/33
f 15/15/33 16/38/35 13/24/22
f 17/18/15 15/41/15 55/40/36 57/39/36
f 18/20/17 58/42/37 53/33/29 14/24/29
f 18/20/17 17/44/18 56/43/38 58/42/37
f 18/45/20 14/17/39 13/17/39 16/22/20
f 23/46/42 24/3/42 20/2/41 19/1/40
f 24/12/43 11/7/43 17/6/43 20/5/43
f 11/47/44 23/3/44 19/9/44 17/9/44
f 27/48/45 28/9/45 24/3/45 23/4/45
f 28/49/46 29/3/46 11/7/46 24/12/46
f 29/51/47 30/1/47 11/50/47
f 30/14/48 27/2/48 23/3/48 11/3/48
f 34/52/50 33/15/50 28/9/49 27/10/49
f 33/53/51 35/18/51 29/3/51 28/17/51
f 35/54/52 36/20/52 30/1/52 29/2/52
f 36/55/54 34/22/54 27/2/53 30/2/53
f 31/24/56 20/2/41 62/57/55 61/56/55
f 31/24/56 19/58/40 20/2/41
f 17/61/57 57/60/57 62/59/57 20/29/57
f 17/10/58 32/24/58 66/63/58 56/62/58
f 56/62/59 57/65/59 17/64/59
f 17/9/60 19/9/60 31/17/60 32/17/60
f 33/15/50 34/66/50 31/24/61
f 35/18/62 33/69/62 64/68/62 65/67/62
f 36/20/63 63/70/63 66/63/63 32/24/63
f 35/72/64 65/71/64 63/70/64 36/20/64
f 36/55/54 32/17/65 31/17/65 34/22/54
f 41/73/66 42/3/68 38/2/67 37/1/66
f 42/12/68 29/7/70 39/6/69 38/5/67
f 29/74/72 43/4/72 40/10/71 39/9/71
f 43/75/73 41/3/73 37/9/73 40/9/73
f 44/10/74 45/9/74 42/3/74 41/4/74
f 45/76/75 7/3/75 29/7/75 42/12/75
f 7/77/78 47/1/77 43/4/76 29/3/76
f 47/78/79 44/2/79 41/3/79 43/3/79
f 45/9/80 44/10/80 67/80/80 68/79/80
f 44/10/81 48/82/81 69/81/81 67/80/81
f 3/83/82 7/3/83 45/17/82
f 21/85/84 45/17/84 68/84/84
f 46/24/85 47/1/77 7/2/78
f 46/17/86 48/17/86 44/2/86 47/2/86
f 48/24/87 38/2/87 26/87/87 69/86/87
f 48/24/88 37/88/88 38/2/88
f 22/90/90 39/29/69 49/89/89
f 38/92/67 39/29/69 22/90/90 26/91/91
f 46/24/92 25/94/92 52/93/92 40/10/92
f 49/96/93 39/95/71 40/10/71 52/93/93
f 40/97/94 37/9/94 48/17/94 46/17/94
f 60/100/97 57/99/96 55/98/95
f 59/102/98 60/100/97 55/98/95 50/101/98
f 56/105/101 57/99/96 53/104/100 58/103/99
f 51/107/103 54/106/102 57/99/96 60/100/97
f 54/106/102 53/104/100 57/99/96
f 66/111/106 61/110/105 62/109/104 57/108/96
f 65/113/108 61/110/105 66/111/106 63/112/107
f 61/110/105 65/113/108 64/114/109
f 66/111/106 57/108/96 56/115/101
f 21/118/112 68/117/111 67/116/110
f 22/121/115 69/120/114 26/119/113
f 21/118/112 25/123/116 51/122/103
f 69/120/114 52/124/117 25/123/116
f 67/116/110 69/120/114 25/123/116 21/118/112
f 69/120/114 22/121/115 49/125/118 52/124/117
f 45/17/82 21/85/119 51/126/119 3/83/82
f 63/127/107 66/5/106 56/134/101 58/133/99 53/132/100 54/131/102 51/29/103 25/130/116 52/129/117 65/128/108
f 7/2/25 3/137/121 51/136/120 25/135/120 46/24/85

